REM DIRINDEX 1\2,1\3,1\4,1\5
REM DIRNAME "folder01","folder02","folder03","folder04","folder05"
TITLE ""
FILE "1Q_t_1849-1858.mp3" MP3
  TRACK 01 AUDIO
    TITLE "3:cjc172_6547"
    INDEX 01 00:00:00
  TRACK 02 AUDIO
    TITLE "0:"
    INDEX 01 00:01:12
  TRACK 03 AUDIO
    TITLE "4:cjc172_6548"
    INDEX 01 00:01:22
  TRACK 04 AUDIO
    TITLE "0:"
    INDEX 01 00:03:18
  TRACK 05 AUDIO
    TITLE "5:cjc172_6549"
    INDEX 01 00:03:28
  TRACK 06 AUDIO
    TITLE "0:"
    INDEX 01 00:09:19
  TRACK 07 AUDIO
    TITLE "3:cjc172_6550"
    INDEX 01 00:09:68
  TRACK 08 AUDIO
    TITLE "0:"
    INDEX 01 00:10:73
  TRACK 09 AUDIO
    TITLE "4:cjc172_6551"
    INDEX 01 00:11:08
  TRACK 10 AUDIO
    TITLE "0:"
    INDEX 01 00:12:62
  TRACK 11 AUDIO
    TITLE "5:cjc172_6552"
    INDEX 01 00:12:72
  TRACK 12 AUDIO
    TITLE "0:"
    INDEX 01 00:19:61
  TRACK 13 AUDIO
    TITLE "3:cjc172_6553"
    INDEX 01 00:20:37
  TRACK 14 AUDIO
    TITLE "0:"
    INDEX 01 00:21:34
  TRACK 15 AUDIO
    TITLE "4:cjc172_6554"
    INDEX 01 00:21:44
  TRACK 16 AUDIO
    TITLE "0:"
    INDEX 01 00:22:63
  TRACK 17 AUDIO
    TITLE "5:cjc172_6555"
    INDEX 01 00:23:00
  TRACK 18 AUDIO
    TITLE "0:"
    INDEX 01 00:27:42
  TRACK 19 AUDIO
    TITLE "3:cjc172_6556"
    INDEX 01 00:28:13
  TRACK 20 AUDIO
    TITLE "0:"
    INDEX 01 00:29:45
  TRACK 21 AUDIO
    TITLE "4:cjc172_6557"
    INDEX 01 00:29:53
  TRACK 22 AUDIO
    TITLE "0:"
    INDEX 01 00:31:38
  TRACK 23 AUDIO
    TITLE "5:cjc172_6558"
    INDEX 01 00:31:46
  TRACK 24 AUDIO
    TITLE "0:"
    INDEX 01 00:37:11
  TRACK 25 AUDIO
    TITLE "3:cjc172_6559"
    INDEX 01 00:37:60
  TRACK 26 AUDIO
    TITLE "0:"
    INDEX 01 00:38:74
  TRACK 27 AUDIO
    TITLE "4:cjc172_6560"
    INDEX 01 00:39:08
  TRACK 28 AUDIO
    TITLE "0:"
    INDEX 01 00:40:74
  TRACK 29 AUDIO
    TITLE "5:cjc172_6561"
    INDEX 01 00:41:09
  TRACK 30 AUDIO
    TITLE "0:"
    INDEX 01 00:48:13
  TRACK 31 AUDIO
    TITLE "3:cjc172_6562"
    INDEX 01 00:48:60
  TRACK 32 AUDIO
    TITLE "0:"
    INDEX 01 00:49:64
  TRACK 33 AUDIO
    TITLE "4:cjc172_6563"
    INDEX 01 00:49:71
  TRACK 34 AUDIO
    TITLE "0:"
    INDEX 01 00:52:25
  TRACK 35 AUDIO
    TITLE "5:cjc172_6564"
    INDEX 01 00:52:33
  TRACK 36 AUDIO
    TITLE "0:"
    INDEX 01 00:57:53
  TRACK 37 AUDIO
    TITLE "3:cjc172_6565"
    INDEX 01 00:58:25
  TRACK 38 AUDIO
    TITLE "0:"
    INDEX 01 00:59:52
  TRACK 39 AUDIO
    TITLE "4:cjc172_6566"
    INDEX 01 00:59:62
  TRACK 40 AUDIO
    TITLE "0:"
    INDEX 01 01:03:13
  TRACK 41 AUDIO
    TITLE "5:cjc172_6567"
    INDEX 01 01:03:23
  TRACK 42 AUDIO
    TITLE "0:"
    INDEX 01 01:09:21
  TRACK 43 AUDIO
    TITLE "3:cjc172_6568"
    INDEX 01 01:09:68
  TRACK 44 AUDIO
    TITLE "0:"
    INDEX 01 01:11:16
  TRACK 45 AUDIO
    TITLE "4:cjc172_6569"
    INDEX 01 01:11:26
  TRACK 46 AUDIO
    TITLE "0:"
    INDEX 01 01:13:13
  TRACK 47 AUDIO
    TITLE "5:cjc172_6570"
    INDEX 01 01:13:23
  TRACK 48 AUDIO
    TITLE "0:"
    INDEX 01 01:18:08
  TRACK 49 AUDIO
    TITLE "3:cjc172_6571"
    INDEX 01 01:18:57
  TRACK 50 AUDIO
    TITLE "0:"
    INDEX 01 01:19:69
  TRACK 51 AUDIO
    TITLE "4:cjc172_6572"
    INDEX 01 01:20:03
  TRACK 52 AUDIO
    TITLE "0:"
    INDEX 01 01:21:05
  TRACK 53 AUDIO
    TITLE "5:cjc172_6573"
    INDEX 01 01:21:13
  TRACK 54 AUDIO
    TITLE "0:"
    INDEX 01 01:26:53
  TRACK 55 AUDIO
    TITLE "3:cjc172_6574"
    INDEX 01 01:27:25
  TRACK 56 AUDIO
    TITLE "0:"
    INDEX 01 01:28:42
  TRACK 57 AUDIO
    TITLE "4:cjc172_6575"
    INDEX 01 01:28:52
  TRACK 58 AUDIO
    TITLE "0:"
    INDEX 01 01:29:61
  TRACK 59 AUDIO
    TITLE "5:cjc172_6576"
    INDEX 01 01:29:71
  TRACK 60 AUDIO
    TITLE "0:"
    INDEX 01 01:35:21
